# xmcd
#
# Track frame offsets: 
#        150
#        18682
#        25992
#        33105
#        41835
#        54657
#        63782
#        73635
#        82220
#        92675
#        101367
#
# Disc length: 1458 seconds
#
# Revision: 0
# Processed by: cddbd v1.5PL3 Copyright (c) Steve Scherf et al.
# Submitted via: ExactAudioCopy v0.95a5
#
DISCID=8d05b00b
DTITLE=The Village Singers - On My Father's Side
DYEAR=1996
DGENRE=Bluegrass
TTITLE0=On My Father's Side
TTITLE1=Old Gospel Ship
TTITLE2=Palms Of Victory
TTITLE3=I've Got More To Go To Heaven For Than I Had Yesterday
TTITLE4=Little Bessie
TTITLE5=The Good Book Song
TTITLE6=Who Will Sing For Me
TTITLE7=They're Holding Up The Latter
TTITLE8=Just A Little Talk With Jesus
TTITLE9=Hallelujah I'm Ready To Go
TTITLE10=Standing On The Solid Rock
EXTD=
EXTT0=
EXTT1=
EXTT2=
EXTT3=
EXTT4=
EXTT5=
EXTT6=
EXTT7=
EXTT8=
EXTT9=
EXTT10=
PLAYORDER=
